<svg xmlns="http://www.w3.org/2000/svg" width="189" height="47" viewBox="0 0 189 47">
  <g fill="#f4f4f7" fill-rule="evenodd">
    <path d="M157.435996,23.0854579 C157.337487,27.0212498 159.88431,30.0731178 163.382497,30.2114085 C167.032993,30.3553824 170.005297,27.4073272 170.097743,23.5510999 C170.190947,19.6717609 167.520231,16.6555076 163.945132,16.6017068 C160.141568,16.5444961 157.534883,19.1409518 157.435996,23.0854579 M163.970895,46.6789922 C154.205297,46.4778076 146.715244,42.5662639 141.643574,34.3957448 C136.601077,26.2729644 138.364758,14.5807678 145.055755,7.70677159 C153.417987,-0.884681759 167.303513,-2.3850414 177.252109,3.66906131 C192.287153,12.8189819 192.579647,31.9803931 178.952138,41.8623073 C173.711867,45.6617029 168.548129,46.5236519 163.970895,46.6789922"/>
    <path d="M105.60198,1.43000187 C107.874115,1.43227514 110.15686,1.30421414 112.412325,1.49971555 C113.228808,1.57056587 114.239278,2.24156004 114.704162,2.94172787 C115.634309,4.34244242 116.140112,6.02201169 117.041086,7.44697447 C117.480585,8.14221688 118.388757,8.88595576 119.13098,8.93748326 C119.754615,8.98067544 120.662029,8.18465129 121.062883,7.52767563 C121.973707,6.03489356 122.516262,4.31023773 123.480129,2.86026895 C123.939709,2.16919421 125.008526,1.51070303 125.819705,1.48759143 C130.360187,1.35763604 134.906353,1.40499587 139.449866,1.43644281 C141.552643,1.45121908 142.309643,2.68522699 141.262043,4.53604943 C138.256777,9.84527662 135.234083,15.1469262 132.081812,20.3693902 C130.99784,22.1648964 130.982685,23.6125919 132.06893,25.4118868 C135.349262,30.8457651 138.476527,36.3720898 141.665928,41.8609055 C142.833632,43.8700992 142.034577,45.323099 139.670374,45.3443162 C135.379193,45.3833407 131.083467,45.4549488 126.798728,45.2848323 C125.89927,45.2488388 124.750509,44.4187156 124.219321,43.6200393 C123.007667,41.7980116 122.173376,39.7300917 121.062504,37.8341827 C119.871309,35.8003618 118.209926,35.834082 117.033508,37.8944244 C116.099951,39.5289071 115.229667,41.2069608 114.454481,42.9217658 C113.702407,44.5854222 112.67754,45.4610108 110.697898,45.3943282 C106.726492,45.2598263 102.747129,45.3708377 98.7715548,45.3522727 C96.1080375,45.3397697 95.3051936,43.8731302 96.6615793,41.5301444 C99.9097064,35.9200875 103.133206,30.2952543 106.444606,24.7227064 C107.226612,23.4064819 107.2035,22.3274353 106.44006,21.0441732 C103.194206,15.5875622 99.9945752,10.1036719 96.8066899,4.61258293 C95.7625002,2.81404575 96.5073757,1.4898647 98.5968917,1.44061047 C100.930406,1.38529418 103.266572,1.4277286 105.60198,1.43000187"/>
    <path d="M68.4738756 18.3515202L79.7860569 18.3515202C79.6784554 15.8577406 76.8323186 13.4651216 74.3222472 13.2900796 72.0353354 13.1305717 69.3847 15.4087693 68.4738756 18.3515202M68.6064832 27.1972011C70.3701635 30.2827892 72.5369708 31.9221974 75.6990924 32.1840025 78.8320403 32.4435344 81.8123002 32.1741517 84.6732132 30.6495438 86.9999073 29.4102316 87.8868623 29.8186628 89.1148082 32.1900646 90.1563457 34.2015316 91.1808337 36.2220917 92.1810735 38.2547759 92.9320111 39.7805204 92.9960416 41.0088452 91.1743928 42.0200724 81.7907041 47.2292756 72.1565766 48.7000827 62.3924936 43.4435197 52.7882975 38.2729621 47.5048341 27.4351369 51.2242863 16.199868 54.0780006 7.57999878 62.3970402.980689621 71.5230914.217249045 78.0144201-.325684129 83.943114.98409953 89.0735104 5.03507057 95.4958832 10.1056042 98.6686134 16.6708143 97.7320253 25.0008413 97.5531946 26.5898586 96.9939696 27.2638838 95.2674194 27.2456976 87.2564082 27.1593132 79.2438815 27.2009899 71.2317337 27.1972011 70.4940568 27.1968222 69.7560011 27.1972011 68.6064832 27.1972011M18.0134467 6.58184285C24.4308941-.877142073 34.8462695-1.42386403 41.135277 5.17620288 44.727047 8.94528817 45.7530505 13.7847058 45.8356461 18.7817369 45.9659804 26.6684759 45.8867947 34.5586248 45.8716396 42.447637 45.8674719 44.6080033 45.0881184 45.3403759 42.8557651 45.3502267 38.8798121 45.3668974 34.903859 45.3631086 30.9275271 45.3490901 28.5186163 45.3407547 27.8877833 44.7337911 27.8805846 42.3362467 27.8616407 35.8990976 27.9893228 29.4581597 27.7881382 23.0270727 27.7400206 21.4964028 26.9167172 19.7706103 25.9339059 18.5494843 24.9200265 17.2893337 23.1650603 17.0976211 21.5703599 17.8174906 19.3486152 18.8207614 18.1934141 20.7257635 18.0680052 23.0255572 17.8584853 26.8639773 17.928199 30.7183103 17.9016775 34.5658235 17.8819758 37.3426254 17.8671995 40.1198063 17.9073607 42.8958505 17.9316089 44.5693577 17.1344481 45.3460591 15.5113318 45.3490901 11.2197728 45.3574254 6.92821375 45.3801581 2.63703362 45.3487112.775981461 45.3354504.00609994703 44.5500349.00458443224 42.6670078-.00602417129 29.7927096.00269003875 16.9180326.0186029441 4.04335557.0208762162 2.15843405.752490982 1.43591238 2.65559868 1.42757705 6.8206122 1.40939087 10.9863835 1.4124219 15.151397 1.4302292 17.5049915 1.44008004 17.8357526 1.79963593 17.8903111 4.1869506 17.9058451 4.86211244 17.9585093 5.5368954 18.0134467 6.58184285"/>
  </g>
</svg>
