<svg xmlns="http://www.w3.org/2000/svg" xmlns:xlink="http://www.w3.org/1999/xlink" width="103" height="41" viewBox="0 0 103 41">
  <defs>
    <rect id="logjaxx-a" width="107" height="65" x=".479"/>
  </defs>
  <g fill="none" fill-rule="evenodd" transform="translate(-3 -12)">
    <mask id="logjaxx-b" fill="#fff">
      <use xlink:href="#logjaxx-a"/>
    </mask>
    <use fill="#D8D8D8" opacity="0" xlink:href="#logjaxx-a"/>
    <g fill="#929AA0" mask="url(#logjaxx-b)">
      <g transform="translate(3.365 12.805)">
        <path d="M.0000343064053 33.5872059C2.91058974 33.3516924 5.37807794 32.329533 6.90093927 29.6625531 7.49632694 28.620153 7.82258085 27.4870124 7.92001104 26.2902334 7.94385399 25.9970852 7.95912034 25.7023932 7.95929188 25.4083873 7.96135026 17.1009197 7.9610072 8.79328059 7.9610072.485641474 7.9610072.176026166 7.9610072.176026166 8.27045097.176026166 10.1228253.175854634 11.9750282.179113742 13.827231.171394801 14.0298103.170708673 14.0786969.233317863 14.0785254.427663649 14.0742371 8.9754476 14.0817845 17.52306 14.0702919 26.0706724 14.0670328 28.488931 13.5265353 30.7821426 12.2851581 32.8810085 11.10639 34.8735245 9.44716068 36.3685977 7.43920677 37.4907602 5.58631782 38.526299 3.60049155 39.184639 1.51277525 39.5433124 1.10898886 39.6126114.700571103 39.6553228.294726328 39.7131291.249956469 39.7194758.207931123 39.7453771.164705052 39.7623588L.0000343064053 39.7623588.0000343064053 33.5872059zM36.7090544 26.6187173L36.7090544 26.8609205C36.7090544 28.9121005 36.7064815 30.963452 36.7133427 33.0148035 36.7140289 33.2033172 36.6684013 33.2878825 36.4752563 33.3377983 35.5990707 33.564049 34.7149946 33.7316358 33.8101632 33.7837816 29.13866 34.0529153 25.2453976 32.4190728 22.1379234 28.9440054 20.4040776 27.0050074 19.3441812 24.7155694 18.8772711 22.1566547 18.6949325 21.1567945 18.6177431 20.1442409 18.6698888 19.129629 18.8438223 15.7442729 20.0419735 12.769736 22.3152875 10.2477006 24.3151794 8.02927694 26.7800946 6.57828753 29.693223 5.91891842 30.4230918 5.75356155 31.1764604 5.65887587 31.923997 5.60930311 35.1632078 5.39454501 38.1327703 6.22201551 40.7923743 8.07215995 43.8808085 10.2204271 45.8285546 13.1536247 46.6297807 16.8362458 46.8296155 17.7549713 46.920699 18.6860472 46.9198414 19.6274149 46.9160677 24.1965135 46.9165823 28.7656121 46.9155531 33.3345392 46.9153816 33.6153371 46.9153816 33.6156802 46.6383573 33.6156802 44.7516766 33.6158517 42.8651673 33.6122495 40.9784866 33.6206546 40.7663015 33.6215123 40.7150134 33.55856 40.7151849 33.3539223 40.7206739 28.8189586 40.7213601 24.2843379 40.7186156 19.7495457 40.7167287 16.1595519 38.5142575 13.2814161 35.4940931 12.1477609 34.7402098 11.8649046 33.9607683 11.7060659 33.1526809 11.6654128 30.7505464 11.5444828 28.6966219 12.3371323 26.9996556 14.0253505 25.7574207 15.2612387 25.0162308 16.7630016 24.7621918 18.5038802 24.15514 22.664561 26.8526526 26.5979619 30.9630746 27.4942167 32.9079047 27.9180724 34.7736586 27.6530554 36.5323764 26.7020818 36.5786901 26.6770382 36.6275767 26.6569689 36.7090544 26.6187173M77.6016892 9.4196984C79.2813308 8.12960603 80.9539396 6.84483115 82.6474753 5.54410379 85.0127304 8.62310367 87.3664929 11.6868372 89.7446129 14.7824757 92.1213607 11.6885525 94.4749516 8.62499052 96.841579 5.54427532 98.5315125 6.84208663 100.204121 8.12668998 101.894913 9.42518742 101.638644 9.7608756 101.395068 10.081469 101.149949 10.4006901 98.9363281 13.2839719 96.7225358 16.1670822 94.5084004 19.050021 94.308051 19.3110927 94.1121614 19.5761097 93.9018631 19.829291 93.7919111 19.9617137 93.7869367 20.0560563 93.8975748 20.198771 95.0104746 21.6355232 96.1161701 23.077936 97.2232378 24.5194912 98.6018407 26.3144023 99.979929 28.1096565 101.358189 29.9049107 101.39524 29.9532827 101.430747 30.0028555 101.484779 30.0757566 99.8044517 31.3668781 98.1323575 32.6514815 96.4336758 33.9564972 94.2107923 31.0630949 91.9947701 28.1786124 89.7447845 25.2500461 87.5071492 28.1624884 85.2885539 31.049887 83.0557216 33.9559826 81.3673318 32.6595435 79.69438 31.3747686 78.002388 30.0754135 78.2771824 29.7150247 78.5444293 29.3620118 78.8140776 29.0110573 81.0709245 26.074429 83.3272568 23.1376292 85.5877058 20.2040884 85.6937126 20.0665198 85.6998877 19.9750932 85.5899357 19.8323785 82.9538315 16.4089424 80.3228733 12.9813894 77.6914005 9.55452257 77.6630977 9.51764319 77.6397693 9.4769901 77.6016892 9.4196984M55.703722 5.54398372C58.0718932 8.62641423 60.4256557 11.6904908 62.8010312 14.7823556 65.1753775 11.6916916 67.5263954 8.63138866 69.8976542 5.54432678 71.5815841 6.83750673 73.2538498 8.12159548 74.9489293 9.4231805 74.8175358 9.59882929 74.6940327 9.76727374 74.5669275 9.93280215 72.0347717 13.22879 69.5034736 16.5252925 66.9660003 19.8169921 66.8454133 19.9737724 66.8541614 20.0684581 66.9701171 20.2190632 69.4516709 23.4412923 71.9280788 26.6678097 74.4051728 29.8934695 74.446512 29.947159 74.4852782 30.0027354 74.5399969 30.0773518 72.8576108 31.3696741 71.184659 32.6546205 69.4900941 33.9565486 67.261893 31.0562851 65.0426117 28.1675142 62.8010312 25.249926 60.5601368 28.1666566 58.3437714 31.0519968 56.1124828 33.9562056 54.4264946 32.6614818 52.7537142 31.3768785 51.0610362 30.0770088 51.1802509 29.9176555 51.2879731 29.7703095 51.3989543 29.6255365 53.8184135 26.4765515 56.2373582 23.327052 58.6607626 20.1811546 58.7602512 20.051991 58.7513315 19.9693126 58.6563028 19.8458095 56.2589712 16.7319886 53.8652418 13.6152517 51.4711693 10.4986863 51.2008348 10.1467026 50.9318726 9.79368968 50.65056 9.42575348 52.3353476 8.13137281 54.0036681 6.84985703 55.703722 5.54398372"/>
      </g>
    </g>
  </g>
</svg>
