<svg xmlns="http://www.w3.org/2000/svg" xmlns:xlink="http://www.w3.org/1999/xlink" width="171" height="43" viewBox="0 0 171 43">
  <defs>
    <rect id="logo-bancor-a" width="175" height="65" x=".479"/>
  </defs>
  <g fill="none" fill-rule="evenodd" transform="translate(-2 -12)">
    <mask id="logo-bancor-b" fill="#fff">
      <use xlink:href="#logo-bancor-a"/>
    </mask>
    <use fill="#D8D8D8" opacity="0" xlink:href="#logo-bancor-a"/>
    <g fill="#929AA0" mask="url(#logo-bancor-b)">
      <g transform="translate(2.48 12.24)">
        <path d="M0 9.50446787C.888667746 9.98461322 1.78633079 10.4484652 2.66413629 10.9477892 4.91941074 12.2308924 7.17417602 13.5158625 9.40551957 14.8400385 9.68165831 15.0038209 9.98410405 15.4081002 9.98732878 15.7040965 10.026365 19.2327999 10.0114294 22.7620125 10.0080349 26.2910554 10.0080349 26.3692975 9.97833348 26.4475396 9.94659535 26.6028358 9.65178712 26.4477094 9.38277674 26.3168532 9.12394971 26.1683459 6.33489756 24.5683706 3.54873069 22.9634733.757472145 21.3674016.520878784 21.2323023.25322618 21.1515144 0 21.0456074L0 9.50446787zM0 25.1189508C2.01240135 26.2516797 4.02700909 27.3806747 6.03652516 28.518665 7.21473973 29.1858447 8.39516069 29.8506483 9.54961409 30.5572037 9.76465268 30.6887387 9.99174157 31.0127392 9.9934388 31.2495023 10.0194064 34.835572 10.0088836 38.4218114 10.0041313 42.0080508 10.0041313 42.0569309 9.96848957 42.1056413 9.92334335 42.222071 9.65144768 42.0793343 9.38260702 41.9488176 9.12411943 41.8003103 6.35967706 40.2132338 3.59811998 38.620896.831640939 37.0372141.568570846 36.8866701.277835963 36.7846668 0 36.6600904L0 25.1189508zM12.5594754 0C15.4607142 1.68585499 18.361953 3.37154025 21.2630221 5.05756497 21.6248708 5.26785132 21.9862103 5.47915601 22.4332597 5.73984998 22.2165239 5.89429758 22.075145 6.01395205 21.9173029 6.10475366 18.9590373 7.80876897 16.0029781 9.5166879 13.0311346 11.196942 12.7865643 11.335266 12.3546202 11.4157145 12.1411091 11.2935142 9.25124169 9.64041571 6.38445657 7.9469232 3.51274949 6.26208655 3.2946559 6.13411568 3.08301177 5.99528256 2.74017203 5.78160175 3.0465214 5.58200793 3.2803992 5.41567974 3.52700619 5.27090633 6.25258208 3.67160988 8.98104325 2.0772354 11.7057705.476411452 11.9445703.335881106 12.1623244.159539282 12.3897528 0L12.5594754 0zM51.2770454 18.4598151C52.157906 18.4598151 52.9440612 18.4598151 53.7300468 18.4598151 55.592583 18.4594757 57.4551193 18.4681315 59.3176555 18.4550629 60.2446806 18.4484437 61.1844349 18.3265828 61.6942817 17.441649 62.354333 16.2968698 62.3292141 15.0477111 61.8215737 13.8582949 61.3488961 12.7503455 60.3020469 12.6099849 59.2535004 12.6042143 56.8266363 12.5909759 54.3996026 12.598274 51.9727385 12.6021776 51.7543055 12.6025171 51.5357027 12.6383285 51.2770454 12.6610714L51.2770454 18.4598151zM51.264486 30.2158235C54.7152867 30.2158235 58.0752858 30.2472222 61.4342666 30.1995302 62.6854619 30.1817093 63.4716172 29.3485408 63.5853313 28.0084109 63.6688349 27.0265654 63.6690046 26.0275779 63.5943266 25.0448838 63.480273 23.5435174 62.6114628 22.7563438 61.0863352 22.7449723 57.9491819 22.7210414 54.8115194 22.735977 51.6740267 22.7393715 51.5423219 22.7395412 51.4107869 22.7834994 51.264486 22.8096367L51.264486 30.2158235zM64.0254221 20.216105C67.2372534 21.4168927 68.2311492 22.8318703 68.2133283 26.0340274 68.2068788 27.1908569 68.209255 28.3585487 68.0602385 29.5021398 67.6714039 32.4872216 65.7667764 34.3164923 62.7372273 34.4375045 59.4045535 34.5703973 56.064412 34.5169347 52.7273254 34.5364528 51.0867864 34.5457875 49.4462473 34.5311914 47.8057083 34.5376409 46.999356 34.5408656 46.633434 34.180205 46.6346221 33.3502613 46.6466724 25.4019803 46.6388651 17.4536993 46.6459935 9.5052486 46.6468421 8.60385165 46.920435 8.33025876 47.8104605 8.32924042 52.0815308 8.32363957 56.3536193 8.27883279 60.6235015 8.35130436 64.471623 8.41664758 66.6062246 10.6296611 66.7031362 14.4918695 66.7228241 15.2819284 66.7503191 16.0845468 66.6399994 16.8623856 66.4249608 18.3800455 65.5878888 19.5020818 64.0254221 20.216105zM84.5575168 26.6920251C82.2616786 26.6920251 80.123343 26.627191 77.991457 26.7183321 76.8658564 26.7663636 76.3617802 27.5723764 76.3548215 28.8863691 76.3475235 30.2774159 76.825123 31.0445622 77.9982459 31.1260291 79.340752 31.2193765 80.7078678 31.2141151 82.0440942 31.0678142 83.3129406 30.9291508 84.1096187 30.068657 84.3669182 28.8149159 84.5009991 28.1618232 84.4920038 27.4793684 84.5575168 26.6920251M84.4497429 23.1152902C84.4745224 22.8596879 84.4999808 22.697433 84.5045633 22.534669 84.5938374 19.412621 84.0069365 18.8101057 80.8820033 18.8101057 80.5994151 18.8101057 80.3168269 18.8095965 80.0340689 18.8102754 78.1379276 18.8143487 77.7791339 19.0899783 77.4325603 20.9358817 77.3227498 21.5204065 77.0040106 21.7665043 76.4539396 21.7748208 75.7758976 21.7851738 75.0975162 21.7816097 74.4194743 21.776518 73.7013778 21.7712566 73.4406838 21.362225 73.4235418 20.6885959 73.3478455 17.7216744 74.93 15.5701005 77.8583944 15.2374441 79.9984272 14.9944013 82.2133076 15.049052 84.3569046 15.2976956 86.7250446 15.5724766 88.132215 17.2637627 88.4193857 19.6351274 88.4971187 20.2787157 88.5410769 20.9304506 88.5429438 21.5786214 88.5544849 25.3378081 88.5493933 29.0969949 88.5483749 32.8561817 88.5478658 34.3806304 88.3886659 34.5349083 86.8329882 34.538133 86.6916092 34.5383028 86.5502303 34.538133 86.409021 34.538133 84.6281214 34.5376239 84.6281214 34.5376239 84.4507612 32.8317416 84.3643724 32.7450134 84.2781533 32.6581154 84.1919342 32.5715568 84.1374532 32.7536692 84.1228571 32.9622583 84.0223813 33.1139904 83.2835786 34.2270314 82.2119499 34.8334504 80.9025397 34.8881011 79.5506989 34.944449 78.1832435 34.9602333 76.8400586 34.8237763 74.1217808 34.5474678 72.7424449 33.2490896 72.4142013 30.552706 72.2629784 29.3111849 72.3267941 28.0017747 72.5425116 26.7665333 72.8906127 24.7738198 74.338856 23.4362357 76.3902936 23.2804303 78.6954665 23.1051068 81.0181208 23.1594181 83.3333073 23.1161388 83.6922707 23.1095196 84.0515736 23.1152902 84.4497429 23.1152902M140.832826 24.9838686L140.826716 24.9838686C140.826716 26.1980643 140.826716 27.4122601 140.826886 28.6262861 140.826886 28.6828038 140.829262 28.7391517 140.831808 28.7956693 140.896133 30.2546052 141.618642 31.0949019 143.054665 31.165846 144.57538 31.2408634 146.10509 31.2395056 147.625975 31.1678827 149.053851 31.1006725 149.850869 30.2328807 149.865974 28.8119627 149.89279 26.2710451 149.8933 23.7294485 149.866993 21.1887006 149.851208 19.6875038 148.98715 18.8466979 147.475091 18.819712 146.063678 18.7944233 144.651416 18.7952719 143.240172 18.8186936 141.710122 18.844152 140.880348 19.6520318 140.839785 21.1724072 140.80601 22.4421023 140.832826 23.7134946 140.832826 24.9838686zM136.916137 24.9489057C136.916137 23.1138645 136.734364 21.2562502 136.959755 19.4495527 137.278664 16.8945481 138.819916 15.3841863 141.386122 15.1951153 144.028703 15.0002737 146.710491 14.99026 149.350357 15.2046197 151.985471 15.4188097 153.606831 16.9938358 153.757884 19.6554263 153.964097 23.2856238 153.929474 26.9456926 153.723091 30.5772479 153.587143 32.9711857 151.819142 34.6076514 149.433012 34.7605715 146.816737 34.9282575 144.172798 34.9655965 141.5589 34.7890849 138.611836 34.5906792 136.928017 32.663818 136.813115 29.7004607 136.751845 28.1191549 136.802253 26.5332665 136.802253 24.9494149L136.916137 24.9489057zM119.575727 24.9951381C119.575727 26.2115403 119.549251 27.4284516 119.582007 28.6438355 119.628681 30.3685569 120.442671 31.1626892 122.174351 31.1957851 123.333726 31.2180188 124.49412 31.2171701 125.653325 31.1959548 127.380083 31.1643864 128.198147 30.3629561 128.285045 28.6589408 128.349369 27.4011263 128.486336 27.2668757 129.739568 27.2575409 130.248736 27.253807 130.757734 27.2619537 131.266902 27.2631418 131.969044 27.2650087 132.353805 27.6501094 132.306283 28.3169497 132.230587 29.3819592 132.190532 30.4766703 131.903701 31.4933089 131.345483 33.4704079 129.868557 34.6240127 127.886536 34.7479102 125.243106 34.9133898 122.571162 34.9307015 119.930278 34.7453644 117.412952 34.5688528 115.697225 32.6265469 115.613213 29.9892268 115.507136 26.6555347 115.506118 23.3131868 115.614401 19.9796644 115.699432 17.3640688 117.253073 15.517147 119.864935 15.2722372 122.577102 15.0179927 125.34477 15.0729828 128.065423 15.2842875 130.344459 15.461478 131.682552 17.0061237 132.125528 19.2350912 132.278788 20.0051228 132.291347 20.8079109 132.314769 21.5971212 132.336663 22.3444099 131.965819 22.758024 131.174233 22.7369784 130.580713 22.7213639 129.986344 22.7301895 129.392315 22.7346023 128.667769 22.7398637 128.286912 22.4100926 128.284705 21.6607671 128.284026 21.3235283 128.260095 20.9805188 128.194582 20.6504083 127.976149 19.5497569 127.26569 18.8757883 126.157232 18.840486 124.659939 18.7926242 123.158233 18.7887206 121.661449 18.842353 120.505128 18.8835956 119.692666 19.6694114 119.632584 20.8398187 119.561471 22.2215307 119.615782 23.6096922 119.615782 24.9951381L119.575727 24.9951381zM97.8147728 17.4149686C98.071054 17.0719591 98.215488 16.8783056 98.3602614 16.6848218 99.0011341 15.827383 99.8651921 15.2165512 100.90661 15.1615611 102.623355 15.0705898 104.372516 14.9987971 106.067536 15.2236796 108.784626 15.5841705 110.382734 17.3625243 110.448078 20.115765 110.553815 24.5813374 110.48932 29.0506437 110.500522 33.5184225 110.502219 34.1908636 110.14699 34.5038321 109.509851 34.5243685 108.91667 34.5433775 108.322132 34.54796 107.728951 34.5333638 106.744051 34.5092632 106.472494 34.2455142 106.465196 33.2556918 106.45094 31.332904 106.460784 29.4099465 106.460444 27.486989 106.460105 25.4509962 106.47538 23.4148337 106.454334 21.3790106 106.436344 19.6364682 105.629312 18.8380929 103.907137 18.812974 103.059033 18.8005842 102.21042 18.8073731 101.362146 18.8107676 98.9183095 18.8206115 97.7694569 19.9548679 97.7647047 22.3842778 97.757746 25.9190912 97.7636863 29.4539047 97.7623286 32.9887181 97.7618194 34.3697512 97.5975279 34.5301391 96.1923941 34.5379464 93.7161408 34.5516939 93.7161408 34.5516939 93.7161408 32.091055 93.7161408 27.057421 93.7151225 22.0239566 93.7168197 16.990662 93.7173289 15.6613943 93.9242208 15.453484 95.2212412 15.449241 95.4474815 15.4485621 95.6737217 15.4490712 95.899962 15.4490712 97.6786553 15.449241 97.6786553 15.449241 97.8147728 17.4149686M27.4842055 23.2461972L27.4842055 28.7428347C27.4842055 30.5240738 27.5050814 32.3058221 27.4634994 34.0860429 27.4567105 34.3811905 27.2545708 34.8026118 27.0133949 34.9422936 22.8833642 37.3352131 18.7329667 39.6933394 14.585794 42.0567272 14.4714009 42.1220704 14.3425815 42.162125 14.1149834 42.2586972L14.1149834 38.6310454C14.1149834 36.2561165 14.0973322 33.8808482 14.136029 31.5064284 14.1411207 31.1841251 14.3424117 30.7173879 14.5986929 30.5685411 18.7265173 28.171718 22.8777633 25.8152889 27.0247663 23.4517314 27.1391594 23.3865579 27.2657725 23.3429391 27.4842055 23.2461972M14.1149834 26.692687C14.1149834 23.415852 14.2122345 20.307891 14.0735711 17.2104528 14.0053426 15.6841371 14.4439059 14.8450284 15.8296912 14.1457711 18.3475266 12.8752274 20.7462167 11.3685995 23.1956538 9.96244744 23.4585542 9.81139429 23.7285829 9.67256117 24.1204725 9.46023815L24.1204725 10.4722943C24.1203028 13.7235012 24.1282798 16.9750475 24.1072341 20.2262544 24.1051975 20.5217415 24.0079464 20.9679423 23.8039398 21.088106 20.6433648 22.9499633 17.4580103 24.7693901 14.1149834 26.692687M162.990914 16.920872C163.413524 16.6036604 163.940852 16.1871611 164.488887 15.8000237 165.876709 14.8202149 167.458693 15.0780236 168.998247 15.1564355 169.193089 15.1664491 169.391155 15.5047063 169.546791 15.7202541 169.619941 15.8215785 169.612134 15.9928286 169.613662 16.1326801 169.649813 19.2347008 169.793907 18.9996349 166.981433 18.9994652 166.393005 18.9992955 165.787604 19.0067633 165.219712 19.1386378 164.0342 19.4144371 163.326796 20.2196013 163.086638 21.4020589 162.991933 21.868287 162.968002 22.355391 162.966644 22.8329905 162.95714 26.2518834 162.963759 29.6706065 162.960195 33.0894994 162.959176 34.3323783 162.769936 34.520431 161.552006 34.5379124 158.925209 34.5754211 158.925209 34.5754211 158.925209 31.9900361 158.925209 27.0171628 158.92419 22.0442894 158.925888 17.071416 158.926397 15.6342047 159.109697 15.451074 160.516868 15.4490373 160.68642 15.4488676 160.855973 15.4490373 161.025357 15.4490373 162.831545 15.449207 162.831545 15.449207 162.990914 16.920872"/>
      </g>
    </g>
  </g>
</svg>
