<svg xmlns="http://www.w3.org/2000/svg" width="212" height="25" viewBox="0 0 212 25">
  <g fill="#929AA0" fill-rule="evenodd" transform="translate(.5 .746)">
    <path d="M44.3976742 4.92898692L44.3976742 10.4364154C44.4584681 10.4261967 44.5032041 10.4211109 44.5468099 10.4109394 45.4842887 10.192345 46.4225679 9.97704702 47.3584926 9.75223672 47.7472251 9.65890325 48.0551503 9.43192679 48.2777002 9.10276383 48.3440979 9.00453294 48.3943906 8.87343284 48.3957562 8.75674245 48.4055981 7.92578257 48.4137919 7.09439887 48.3968393 6.26372153 48.3819587 5.53461851 47.8987625 4.96472865 47.2224951 4.93812249 46.2918916 4.90153313 45.3587923 4.92898692 44.3976742 4.92898692zM44.3831232 18.7420586L44.6369883 18.7420586C46.5674184 18.7420586 48.4978485 18.7427649 50.4282786 18.7416818 51.1823396 18.741258 51.7494982 18.1732989 51.751994 17.4163653 51.7543486 16.7022371 51.7545369 15.988156 51.7518528 15.2740278 51.7497337 14.7019717 51.3665108 14.190898 50.8147979 14.0298483 50.730082 14.0051258 50.6282251 14.0027712 50.5422849 14.0233498 48.5543572 14.5000004 46.5679835 14.9833378 44.5794908 15.457728 44.4114717 15.4978492 44.3786967 15.5774793 44.3800152 15.732831 44.3868433 16.525365 44.3831703 17.3179932 44.3831232 18.1105272L44.3831232 18.7420586zM50.9519727 23.4982043L39.4618779 23.4982043C39.4539196 23.4050592 39.439039 23.3119612 39.439039 23.218769 39.4379559 15.5722993 39.4379559 7.92587675 39.439039.279407082 39.439039.18626197 39.4539196.0931168577 39.4618779.0000188362208L47.4672718.0000188362208C47.750286.046826845 48.0343362.0884078025 48.3161732.141243402 50.8121608.609229309 52.8803779 2.7519907 53.2081752 5.26389493 53.4005401 6.73764085 53.2953398 8.22122869 53.2619526 9.72968035 53.3446436 9.77615872 53.4616636 9.83780025 53.574681 9.90608156 55.3676066 10.989541 56.4434374 12.5542188 56.6464448 14.6503134 56.7330914 15.5447514 56.703801 16.4525159 56.6932999 17.3538762 56.6610428 20.1251081 54.7700746 22.5520139 52.0943424 23.2669897 51.719737 23.3671042 51.3330765 23.4222473 50.9519727 23.4982043zM4.90668484 11.3000325C4.99375527 11.2817614 5.07032451 11.2689528 5.1451043 11.2495044 7.19217769 10.7171928 9.23906272 10.1843161 11.2859477 9.65129812 11.9368334 9.48181923 12.3047989 9.02235671 12.312098 8.34820837 12.3195383 7.66548954 12.3212806 6.98253526 12.3117683 6.29986353 12.3005137 5.49160129 11.7436208 4.95307374 10.9326273 4.95269702 9.00977882 4.95175521 7.0869774 4.95241447 5.16412889 4.95241447L4.90668484 4.95241447 4.90668484 11.3000325zM4.897408 23.4981808L-.00000941811042 23.4981808-.00000941811042-.00000470905521 11.3959042-.00000470905521C11.5873273.0301332443 11.7782795.0632379024 11.9701264.0898911549 14.7889668.481731639 17.0920716 3.01576843 17.1918564 5.85556417 17.2210526 6.68591188 17.222324 7.51804902 17.2089032 8.34886763 17.1685466 10.8496114 16.035595 12.6973034 13.8505463 13.9057882 13.7982758 13.9347018 13.7496313 13.9702081 13.6978316 14.0035482 14.2117308 15.9247957 14.720403 17.8305032 15.2314297 19.7355044 15.5679387 20.9901851 15.9078383 22.243971 16.2462311 23.4981808L11.1604514 23.4981808C11.1518809 23.4448272 11.1479253 23.3902021 11.1340336 23.3382613 10.5228924 21.0532393 9.91095072 18.7684999 9.29877354 16.4837605 9.19616323 16.100773 9.09195184 15.7182565 8.9844912 15.3207651 7.60365494 15.6892016 6.25253282 16.0497269 4.897408 16.4112881L4.897408 23.4981808zM136.79019 9.75153978L136.79019 9.49640317C136.79019 8.43714829 136.790943 7.3779405 136.789954 6.31868562 136.789201 5.51630971 136.23066 4.95367179 135.43158 4.95282416 134.011423 4.95131726 132.591314 4.95169399 131.171157 4.95268289 130.362094 4.95320089 129.806425 5.50383071 129.805813 6.30738389 129.804495 7.98649171 129.805436 9.66555243 129.805436 11.3446602L129.805436 11.6248019C132.157986 10.9938827 134.470368 10.3737002 136.79019 9.75153978M129.781562 23.4981667L124.884144 23.4981667C124.876186 23.3893404 124.861352 23.2805141 124.861305 23.1716879 124.860128 17.6184874 124.860128 12.065287 124.860976 6.51208652 124.860976 6.31623692 124.867003 6.12024604 124.876421 5.92463188 125.014632 3.06180886 127.066556.685949236 129.876449.136590855 130.141804.084697067 130.409608.0452351843 130.676282-.0000188362208L135.903333-.0000188362208C135.961584.0147675971 136.019035.0373239716 136.078181.0431161095 137.648933.197620211 138.981219.842807865 140.058415 1.9964793 141.204741 3.22412999 141.733426 4.69608647 141.734038 6.36422219 141.736157 11.9817483 141.734839 17.5992274 141.735169 23.2167064 141.735216 23.3105108 141.739972 23.4043623 141.742562 23.4981667L136.798054 23.4981667C136.795417 23.3884457 136.790566 23.2787247 136.790519 23.1690037 136.790096 20.4862079 136.79019 17.8035062 136.79019 15.1207104L136.79019 14.8244166C136.700341 14.8439592 136.6403 14.8541307 136.581861 14.8700944 134.406607 15.4647539 132.232201 16.0627098 130.055016 16.6502115 129.860109 16.7028116 129.799974 16.7813587 129.80068 16.9824824 129.808403 19.0533836 129.805766 21.1242848 129.804353 23.195186 129.804306 23.2961953 129.78952 23.3972045 129.781562 23.4981667M71.1459365 11.7696949C71.1459365 9.94149836 71.1469254 8.11330186 71.1454656 6.28510535 71.1448535 5.52831309 70.5805674 4.95564489 69.8257058 4.9535729 68.3662754 4.94961729 66.906798 4.94490824 65.4475088 4.96030685 65.2223218 4.96270847 64.9765562 5.03018923 64.7778341 5.13722605 64.2675138 5.4121407 64.110561 5.88460021 64.1114086 6.44299997 64.1167298 9.98953072 64.1140457 13.5361086 64.1145166 17.0826393 64.1145637 17.1609038 64.1185664 17.2394038 64.124641 17.3174799 64.186 18.1019143 64.7128491 18.5918444 65.4994026 18.5925508 66.9196066 18.593728 68.3398105 18.5934926 69.7599674 18.592645 70.5937998 18.592127 71.1457011 18.0397077 71.1458424 17.2072409 71.1461249 15.3946785 71.1459365 13.5822102 71.1459365 11.7696949M70.3532613 23.4981619L64.9378478 23.4981619C64.8869429 23.4836581 64.8368856 23.46129 64.7850389 23.4557805 63.3525914 23.3028774 62.1183481 22.7209324 61.0935635 21.7144189 59.8397304 20.4828597 59.218559 18.9763388 59.2169108 17.219249 59.2139441 13.9943467 59.2153568 10.7694444 59.2167695 7.54454217 59.217005 7.027017 59.2108361 6.50873838 59.2342401 5.99196667 59.3620439 3.1667219 61.3131938.816573719 64.0670022.16841936 64.3843454.0937337439 64.710165.0552607629 65.0320289.000023545276L70.2590802.000023545276C70.4338332.0295493214 70.6079741.0634545189 70.7833864.0880357871 73.708934.49852413 76.0426476 3.17449184 76.0433069 6.12301967 76.0441545 9.87279324 76.0436365 13.6225668 76.0434952 17.3722933 76.0434011 20.0157685 74.2127087 22.4710228 71.6735391 23.2119456 71.2422838 23.3377715 70.7937934 23.4042634 70.3532613 23.4981619M24.7934723 11.7550732C24.7934723 13.5674944 24.7930014 15.3799627 24.7936607 17.1924309 24.7939903 18.0455234 25.3381688 18.5922447 26.1871643 18.5926685 27.5994571 18.593422 29.0117498 18.5935632 30.4240426 18.5926214 31.2679994 18.5920563 31.8238563 18.0399196 31.8243743 17.1902177 31.8265876 13.5731453 31.8265876 9.95611998 31.8243272 6.33909467 31.8238092 5.50747552 31.2627724 4.95298427 30.4340258 4.95256045 29.021733 4.95190119 27.6094403 4.95218373 26.1971475 4.95246627 25.3295512 4.95265464 24.7938491 5.49141764 24.7936136 6.3648532 24.7931898 8.16159322 24.7934723 9.95833323 24.7934723 11.7550732M31.032688 23.4981855L25.6172745 23.4981855C25.3876609 23.4586294 25.1574352 23.4225581 24.9286222 23.3790464 22.0387221 22.8294055 19.8570169 20.2228963 19.8870135 17.1823065 19.9228495 13.5432428 19.8953957 9.90351983 19.8954898 6.26407942 19.8955369 3.44420298 21.7740261.974397704 24.4963781.23371041 24.8932101.125778865 25.3060059.0764750566 25.7114556 0L30.9385069 0C31.1746189.039320611 31.4119082.0727078124 31.6467017.118950735 34.6242844.705181018 36.7224039 3.25913711 36.7227806 6.29680735 36.7232515 9.92235605 36.7231103 13.5479047 36.7221685 17.1734534 36.7221214 17.3379878 36.7170827 17.5028519 36.7051217 17.6668682 36.5020672 20.458302 34.625132 22.6821533 31.9226994 23.3284711 31.6292782 23.3986361 31.3294997 23.442289 31.032688 23.4981855M165.42911 0L170.279436 0C170.287395.108826266 170.302228.217652532 170.302275.326525888 170.3035 3.98122364 170.303311 7.63601557 170.303311 11.2907604 170.303311 11.3902627 170.303264 11.4897651 170.303264 11.6086687 170.402767 11.5900209 170.471425 11.58178 170.537587 11.5641211 172.723483 10.9810458 174.908485 10.3942505 177.096265 9.81819175 177.283073 9.76898212 177.340429 9.69994737 177.340005 9.50522794 177.333036 6.44650822 177.335061 3.3877885 177.335485.329115869 177.335485.219394882 177.340382.109720986 177.343019 0L182.240437 0C182.237847.0623949815 182.233043.124789963 182.233043.187232035 182.232714 7.85592844 182.232714 15.5246249 182.23309 23.1933213 182.23309 23.2949898 182.237847 23.3965641 182.240437 23.4981855L177.343019 23.4981855C177.340382 23.3884645 177.335532 23.2787435 177.335485 23.1690225 177.335061 20.4863209 177.335155 17.8036663 177.335155 15.1209646L177.335155 14.8233523C177.215498 14.8494405 177.124472 14.8650746 177.035848 14.889232 174.875286 15.4778168 172.715713 16.0703573 170.553174 16.6515959 170.357277 16.7042903 170.297896 16.7818484 170.298602 16.9826896 170.306184 19.0534966 170.303641 21.1243508 170.302228 23.1951578 170.302181 23.2962141 170.287395 23.3971763 170.279436 23.4981855L165.42911 23.4981855C165.421151 23.4050404 165.406318 23.3119424 165.406318 23.2187502 165.405188 15.5722805 165.405188 7.92585791 165.406318.279388246 165.406318.186290224 165.421151.093145112 165.42911 0M151.019401 0L156.199361 0C156.241319.0137975318 156.282288.0353179141 156.325234.0403566031 158.846462.335520184 160.570919 1.67684747 161.533826 4.01253885 162.046831 5.25690669 161.935461 6.56809602 161.927833 7.86718309 161.927739 7.87942663 161.909844 7.89157599 161.89939 7.90476135L157.086218 7.90476135 157.086218 7.66087938C157.086171 7.21361331 157.086736 6.76634725 157.085982 6.31908119 157.084475 5.43100046 156.417108 4.89482744 155.659327 4.91225094 154.279056 4.94398997 152.897513 4.92100978 151.516488 4.92133942 150.584237 4.92152778 150.054515 5.44847106 150.054421 6.37601366 150.054233 9.9619592 150.054233 13.5479047 150.054421 17.1338974 150.054515 18.0500441 150.598882 18.5921976 151.520256 18.5927156 152.877735 18.593422 154.235214 18.592904 155.592694 18.5928569 156.560075 18.5928569 157.084287 18.0657723 157.085982 17.089491 157.087159 16.4225004 157.086218 15.7555098 157.086218 15.0885663L157.086218 14.8490167 161.906124 14.8490167C161.906124 15.8666906 161.968754 16.8735808 161.894022 17.8701111 161.695111 20.5207912 159.773299 22.7143162 157.18313 23.3266817 156.889473 23.3961403 156.590213 23.4416297 156.293542 23.4981855L150.925219 23.4981855C150.882697 23.4841525 150.841022 23.4617374 150.79751 23.4572638 147.58245 23.1282892 145.187989 20.4739361 145.187895 17.2370257 145.187801 13.5727686 145.187707 9.90841725 145.188554 6.24411303 145.188601 6.10312391 145.19331 5.96175808 145.205083 5.82128696 145.442561 2.9935464 147.328914.791450909 150.055645.165994196 150.372894.0932392931 150.69796.0545308593 151.019401 0M115.654396 0C115.913582.0439354851 116.173852.0819375606 116.431673.132654085 119.084378.654511584 121.112238 2.86965115 121.349009 5.56078202 121.416631 6.32981783 121.359322 7.10987283 121.359322 7.90212427L116.541252 7.90212427C116.541252 7.80219812 116.543042 7.70330796 116.54097 7.60451199 116.529527 7.0561896 116.557922 6.50311106 116.494256 5.96086336 116.423856 5.36149481 115.879771 4.92651938 115.274893 4.92374104 113.791635 4.91691291 112.308283 4.91507637 110.825024 4.92425903 110.110049 4.92868554 109.585648 5.43410844 109.520946 6.15125046 109.507619 6.29925606 109.509832 6.44890984 109.509832 6.59781016 109.509267 10.0824168 109.509314 13.5669764 109.509456 17.0515831 109.509456 18.0809355 110.025756 18.5928569 111.063208 18.5928569 112.420923 18.592904 113.778685 18.593469 115.1364 18.5926685 115.979556 18.5921505 116.538615 18.0356815 116.540781 17.1931844 116.542806 16.4172263 116.541252 15.641174 116.541252 14.8493934 118.160649 14.8493934 119.764977 14.8493934 121.369541 14.8492522 121.377923 14.8617311 121.393274 14.8744456 121.393039 14.8869246 121.372413 16.0463882 121.47945 17.2090539 121.304038 18.364656 120.919732 20.8954436 118.75465 23.0457395 116.223768 23.41055 116.06446 23.4335302 115.906943 23.4687068 115.748577 23.4981855L110.380254 23.4981855C110.021471 23.4295746 109.657226 23.3815422 109.304659 23.2891505 106.647716 22.59254 104.769462 20.3055402 104.668829 17.5586542 104.606764 15.8658901 104.639869 14.1694529 104.637844 12.474664 104.635348 10.4030564 104.647215 8.33140175 104.640387 6.25979418 104.636619 5.10296768 104.932725 4.02718401 105.530869 3.04963124 106.625348 1.26080244 108.232878.259751485 110.322992.0413925953 110.374368.0360713629 110.424001.0141742562 110.474435 0L115.654396 0zM200.087756 0L200.087756 4.87415468 199.771072 4.87415468C197.213443 4.87415468 194.655766 4.87599122 192.098184 4.87250652 191.63519 4.87189434 191.20742 4.97549355 190.938485 5.36926475 190.786289 5.59205015 190.648266 5.87916125 190.644075 6.139572 190.617846 7.77884121 190.630937 9.41876969 190.63169 11.0584627 190.63169 11.0890716 190.64012 11.1196804 190.650432 11.1895628 193.03943 10.5539816 195.419199 9.92084915 197.827409 9.28018219L197.827409 9.55293067C197.827409 11.0671274 197.821994 12.5813712 197.83339 14.0954266 197.835038 14.3175056 197.772219 14.4007146 197.55711 14.4558106 195.311926 15.03121 193.069804 15.6185705 190.826975 16.2030584 190.766558 16.2187867 190.707553 16.2398362 190.635034 16.2624396 190.635034 16.6388344 190.60904 17.0165948 190.640873 17.3894578 190.694085 18.0129838 191.202899 18.4844544 191.843754 18.5449658 191.944999 18.5545722 192.047468 18.5533479 192.149372 18.5533479 194.707001 18.5537717 197.26463 18.5536775 199.822212 18.5536775L200.134846 18.5536775 200.134846 23.4981855 191.470185 23.4981855C191.294961 23.4677179 191.120396 23.4327767 190.944419 23.4073949 188.040721 22.9881477 185.73319 20.321551 185.732907 17.3825826 185.732578 13.6637946 185.732295 9.94495952 185.734132 6.22617153 185.734273 6.0149704 185.745763 5.80296873 185.765494 5.59261524 186.020442 2.87115805 188.047314.645846922 190.736514.134820251 191.011052.0826439189 191.288368.0445947528 191.564366 0L200.087756 0zM84.7629938 23.4981855C84.7603567 23.3806475 84.7554593 23.2630624 84.7554593 23.1455243 84.7550826 17.1843785 84.7551296 11.2232326 84.7551296 5.26208665L84.7551296 4.92651938 79.1592181 4.92651938 79.1592181 0 95.2170963 0C95.2145064 1.53698853 95.2119635 3.07392997 95.2094206 4.61096559 95.2092322 4.70378107 95.2093735 4.79659655 95.2093735 4.91752508L89.684239 4.91752508 89.684239 5.28883409C89.684239 11.2497916 89.6843803 17.2107021 89.6832501 23.1716596 89.6832501 23.280533 89.6683695 23.3893592 89.6604112 23.4981855L84.7629938 23.4981855zM210.777311 4.89741742L209.791894 4.89741742 209.791894 1.20057363C209.764582 1.19388677 209.737269 1.18715282 209.709957 1.18046596 209.545234 1.5336451 209.492163 1.92699248 209.381076 2.29848985 209.262126 2.69593411 209.165354 3.10001813 209.057847 3.5009471 208.952741 3.89311721 208.846316 4.28500479 208.736878 4.69031317 208.441902 4.69031317 208.159547 4.70057891 207.879123 4.68193105 207.820637 4.67806963 207.738699 4.57583604 207.719015 4.5047293 207.433411 3.4705266 207.156942 2.43387518 206.876989 1.39811849 206.856693 1.32324451 206.825943 1.25114888 206.800043 1.1777818 206.778193 1.18263213 206.75639 1.18752954 206.734587 1.19237987L206.734587 4.88070027 205.758259 4.88070027 205.758259.0954525491C206.278044.0954525491 206.800655.0915911238 207.322842.102798675 207.364329.103693396 207.425123.203384094 207.440757.266202891 207.691514 1.27718995 207.936244 2.289731 208.182998 3.30170697 208.199198 3.36801047 208.220906 3.43294834 208.257119 3.55722031 208.545925 2.36719496 208.820087 1.23753971 209.097591.0941811042L210.777311.0941811042 210.777311 4.89741742z"/>
    <polygon points="203.719 4.89 202.742 4.89 202.742 .965 201.469 .965 201.469 .111 204.97 .111 204.97 .947 203.719 .947"/>
  </g>
</svg>
