<svg xmlns="http://www.w3.org/2000/svg" width="31" height="30" viewBox="0 0 31 30">
  <g fill="none" fill-rule="evenodd" transform="translate(.41)">
    <path fill="#FC8A33" fill-rule="nonzero" d="M8.76644312,11.0039682 C8.78757029,10.7952247 8.70796731,10.588905 8.5520968,10.4484127 L6.96434631,8.53571429 L6.96434631,8.25 L11.8943116,8.25 L15.7049127,16.6071428 L19.0550663,8.25 L23.7548077,8.25 L23.7548077,8.53571429 L22.3972811,9.83730159 C22.2802473,9.92651148 22.2221927,10.0731343 22.2464448,10.218254 L22.2464448,19.7817461 C22.2221927,19.9268658 22.2802473,20.0734885 22.3972811,20.1626984 L23.7230527,21.4642857 L23.7230527,21.75 L17.0545007,21.75 L17.0545007,21.4642857 L18.4279049,20.1309524 C18.5628636,19.9960317 18.5628636,19.9563492 18.5628636,19.7500001 L18.5628636,12.0198413 L14.7443237,21.718254 L14.2283048,21.718254 L9.78260342,12.0198413 L9.78260342,18.5198412 C9.74553678,18.7931195 9.83629729,19.068251 10.0287047,19.265873 L11.814924,21.4325397 L11.814924,21.718254 L6.75,21.718254 L6.75,21.4325397 L8.5362193,19.265873 C8.72722585,19.0679233 8.81269405,18.7909668 8.76644312,18.5198412 L8.76644312,11.0039682 Z"/>
    <circle cx="15" cy="15" r="14.5" stroke="#FC8A33"/>
  </g>
</svg>
