<svg xmlns="http://www.w3.org/2000/svg" width="31" height="30" viewBox="0 0 31 30">
  <g fill="none" fill-rule="evenodd" transform="translate(.105)">
    <path fill="#FC8A33" d="M10.3253236,15.7573885 L18.4497464,10.7535419 C18.5955055,10.6640533 18.745918,10.861501 18.6203475,10.9778362 L11.9154293,17.2101828 C11.6796805,17.4293942 11.5278361,17.7233465 11.4847384,18.0418544 L11.2562918,19.7345499 C11.2260805,19.9605624 10.9086464,19.9828987 10.8462907,19.7641885 L9.96794182,16.6776897 C9.867285,16.3256056 10.01376,15.9494669 10.3253236,15.7573885 M4.81869409,15.0316715 L8.97569182,16.5831897 L10.5845543,21.7578522 C10.687502,22.0889601 11.092993,22.2117385 11.3617452,21.9916681 L13.6789282,20.1028851 C13.9219077,19.9045783 14.267835,19.8951283 14.5214816,20.0791169 L18.7011736,23.1136408 C18.9886827,23.3225431 19.396393,23.1650431 19.4685566,22.8174692 L22.5301418,8.0904317 C22.609035,7.71064193 22.2359748,7.39378057 21.8743691,7.5336692 L4.81368273,14.1152362 C4.39279977,14.2774612 4.39645091,14.8736703 4.81869409,15.0316715"/>
    <circle cx="15" cy="15" r="14.5" stroke="#FC8A33"/>
  </g>
</svg>
