<svg xmlns="http://www.w3.org/2000/svg" width="31" height="30" viewBox="0 0 31 30">
  <g fill="none" fill-rule="evenodd" transform="translate(.28)">
    <circle cx="15" cy="15" r="14.5" stroke="#FC8A33"/>
    <path fill="#FC8A33" d="M18.86925,15.67 C18.916,15.78925 18.9375,15.91125 18.9375,16.03325 C18.9375,16.2785 18.8525,16.51675 18.71,16.711 C18.56925,16.9035 18.37,17.05275 18.13575,17.11825 L18.13675,17.11825 C18.13475,17.11925 18.13275,17.11925 18.13175,17.12025 C18.13075,17.12025 18.129,17.12025 18.128,17.12025 C18.0185,17.15825 17.90625,17.176 17.794,17.176 C17.53225,17.176 17.2755,17.08125 17.07025,16.921 C16.86625,16.76075 16.712,16.53025 16.663,16.258 C16.663,16.257 16.663,16.256 16.663,16.255 C16.663,16.254 16.663,16.253 16.662,16.252 L16.663,16.252 C16.6475,16.18175 16.63975,16.1115 16.63975,16.042 C16.63975,15.80575 16.71975,15.57825 16.8525,15.39075 C16.98525,15.20525 17.172,15.05675 17.3905,14.9805 C17.3915,14.9805 17.3915,14.9805 17.3915,14.9805 C17.3935,14.9805 17.3935,14.9785 17.3935,14.9785 C17.5175,14.93375 17.6485,14.91025 17.77725,14.91025 C18.01275,14.91025 18.24425,14.9815 18.4395,15.1125 C18.63275,15.24025 18.789,15.42875 18.86725,15.66225 C18.86825,15.66425 18.86825,15.66525 18.86925,15.666 C18.86925,15.668 18.87,15.669 18.871,15.67 L18.86925,15.67 Z M18.1505,18.5695 C18.0575,18.50975 17.95125,18.47375 17.838,18.47375 C17.747,18.47375 17.65225,18.5 17.56825,18.55575 C16.7735,19.03025 15.838,19.29025 14.90925,19.29025 C14.212,19.29025 13.5195,19.14375 12.8925,18.835 L12.88975,18.833 L12.88575,18.83225 C12.791,18.794 12.6835,18.711 12.5665,18.633 C12.50575,18.59475 12.44325,18.55575 12.375,18.5275 C12.30675,18.49825 12.2305,18.47775 12.1495,18.47775 C12.082,18.47775 12.01175,18.49325 11.9415,18.5245 C11.9385,18.5265 11.9345,18.5275 11.93175,18.5295 C11.82225,18.5705 11.73625,18.6475 11.68175,18.7385 C11.624,18.83125 11.59575,18.9395 11.59575,19.048 C11.59575,19.1455 11.61925,19.24325 11.667,19.33225 C11.712,19.416 11.78225,19.48925 11.873,19.53925 C12.7705,20.14375 13.82625,20.418 14.88575,20.417 C15.84175,20.417 16.80375,20.1955 17.65925,19.793 L17.664,19.79025 L17.668,19.78725 C17.78125,19.72075 17.93175,19.66125 18.07225,19.57325 C18.1425,19.5285 18.211,19.47775 18.2695,19.41025 C18.328,19.34375 18.375,19.26175 18.40125,19.16425 C18.413,19.12125 18.418,19.07925 18.418,19.03825 C18.418,18.958 18.3985,18.883 18.36625,18.8145 C18.31825,18.713 18.24125,18.629 18.1505,18.5695 Z M11.8535,17.11525 C11.8555,17.11525 11.8575,17.11525 11.8595,17.11625 C11.97375,17.15825 12.09175,17.17875 12.208,17.17875 C12.5,17.17875 12.78325,17.05975 12.997,16.86525 C13.211,16.67 13.3575,16.39375 13.3575,16.07925 C13.3575,16.0715 13.3575,16.0625 13.3575,16.05275 C13.3585,16.03925 13.3585,16.0235 13.3585,16.008 C13.3585,15.6955 13.21375,15.419 13.002,15.22275 C12.789,15.0265 12.50675,14.90625 12.21375,14.90625 C12.13575,14.90625 12.05675,14.916 11.9785,14.93375 C11.9775,14.93375 11.9765,14.93475 11.9755,14.93475 L11.9745,14.93475 C11.587,15.01575 11.247,15.30275 11.122,15.69825 C11.122,15.69925 11.121,15.70025 11.121,15.70025 C11.085,15.80875 11.06825,15.92 11.06825,16.03025 C11.06825,16.2725 11.1485,16.509 11.28625,16.70325 C11.42375,16.89375 11.61725,17.044 11.8495,17.1135 C11.8515,17.1135 11.8515,17.11425 11.8535,17.11525 Z M23.996,14.29025 L23.996,14.292 C23.999,14.33125 24,14.37025 24,14.40925 C24,14.84675 23.8595,15.26675 23.626,15.624 C23.40725,15.95725 23.1065,16.2365 22.75975,16.426 C22.78125,16.60075 22.795,16.7755 22.795,16.95025 C22.794,17.89175 22.46975,18.8175 21.90425,19.55875 L21.90425,19.55975 L21.90325,19.55975 C20.8585,20.94925 19.254,21.76875 17.63275,22.18275 L17.63175,22.18375 C16.7675,22.39375 15.877,22.5 14.98525,22.5 C13.65825,22.5 12.331,22.26075 11.09275,21.76475 L11.09275,21.76375 L11.09175,21.76375 C9.8075,21.2345 8.585,20.39375 7.835,19.16125 C7.43175,18.503 7.21,17.7325 7.21,16.95725 C7.21,16.78225 7.22175,16.6065 7.245,16.43275 C6.90725,16.24225 6.61525,15.97275 6.3975,15.6505 C6.166,15.30475 6.0185,14.8995 6,14.47075 L6,14.465 C6,13.86425 6.26075,13.296 6.666,12.877 C7.07125,12.458 7.624,12.18475 8.21775,12.18475 L8.24225,12.18475 C8.30475,12.17975 8.36725,12.17775 8.42975,12.17775 C8.7275,12.17775 9.02625,12.22575 9.3105,12.335 L9.3115,12.336 L9.3135,12.336 C9.55575,12.4385 9.797,12.5615 10.01075,12.7315 C10.08,12.6955 10.15625,12.6545 10.24125,12.62225 C11.541,11.85175 13.05175,11.55475 14.5245,11.46975 C14.538,10.74025 14.627,9.97675 14.9835,9.30775 C15.27925,8.753 15.794,8.3205 16.40625,8.17 L16.40825,8.169 L16.41125,8.169 C16.6445,8.124 16.88,8.10275 17.11325,8.10275 C17.73525,8.10275 18.3505,8.25 18.92575,8.4805 C19.18075,8.09575 19.545,7.796 19.97175,7.628 L19.9755,7.625 L19.9795,7.624 C20.2295,7.546 20.49425,7.5 20.75975,7.5 C21.04,7.5 21.32225,7.551 21.586,7.669 L21.586,7.668 C21.587,7.669 21.587,7.669 21.587,7.669 C21.58875,7.67 21.59075,7.671 21.59175,7.671 C21.97175,7.8175 22.292,8.087 22.5195,8.423 C22.747,8.759 22.88075,9.16325 22.88075,9.57725 C22.88075,9.6535 22.877,9.7305 22.86825,9.80675 L22.86725,9.80875 C22.86725,9.80975 22.86725,9.8115 22.86725,9.8125 C22.82225,10.34875 22.55075,10.8195 22.166,11.1545 C21.77925,11.49125 21.27825,11.6945 20.76475,11.6945 C20.6825,11.6945 20.5995,11.6905 20.5165,11.67875 C20.00675,11.63975 19.53125,11.39375 19.18175,11.0265 C18.832,10.66025 18.6055,10.17 18.6055,9.64175 C18.6055,9.61625 18.6085,9.59 18.6095,9.5645 C18.13075,9.35175 17.622,9.175 17.11725,9.176 C17.044,9.176 16.97175,9.17975 16.8985,9.1865 L16.8975,9.1865 C16.5185,9.22375 16.168,9.462 15.997,9.80475 L15.997,9.80575 C15.73825,10.30975 15.6865,10.8985 15.67975,11.4825 C17.129,11.57725 18.587,11.925 19.86625,12.66025 L19.86825,12.66025 L19.88675,12.671 C19.91025,12.68575 19.956,12.71 19.996,12.7315 C20.084,12.66025 20.17675,12.587 20.28325,12.5235 C20.671,12.26575 21.13,12.13675 21.58975,12.13675 C21.794,12.13675 21.998,12.16325 22.19525,12.214 L22.19625,12.214 L22.205,12.217 C22.208,12.217 22.21,12.21775 22.212,12.21775 C22.68075,12.337 23.1035,12.6065 23.42275,12.96875 C23.74125,13.33125 23.955,13.791 23.997,14.28925 L23.997,14.29025 L23.996,14.29025 Z M19.7265,9.546 C19.7265,9.5655 19.7265,9.586 19.7285,9.6065 L19.7285,9.6105 C19.73825,9.8615 19.8575,10.09675 20.038,10.26975 C20.21975,10.4425 20.461,10.55 20.705,10.551 L20.712,10.551 C20.7295,10.55175 20.747,10.55175 20.76475,10.55175 C21.01075,10.55275 21.25575,10.4465 21.4405,10.2735 C21.625,10.10075 21.746,9.86425 21.75575,9.6105 L21.75575,9.6075 C21.75775,9.588 21.75875,9.5695 21.75875,9.55 C21.75875,9.28925 21.63675,9.03925 21.44525,8.8545 C21.255,8.67 20.998,8.55675 20.74425,8.55675 C20.663,8.55675 20.582,8.5685 20.503,8.59275 L20.5,8.59275 L20.498,8.59375 C20.289,8.6485 20.09375,8.7765 19.953,8.94725 C19.8125,9.11725 19.7265,9.32725 19.7265,9.546 Z M9.02625,13.43175 C8.832,13.342 8.63175,13.2775 8.4335,13.2775 C8.4005,13.2775 8.36725,13.28025 8.334,13.28325 L8.329,13.28325 L8.32525,13.28425 C8.04,13.292 7.753,13.416 7.538,13.61425 C7.32225,13.8125 7.17975,14.08025 7.169,14.375 L7.169,14.378 L7.168,14.38 C7.166,14.4035 7.166,14.42775 7.166,14.45025 C7.166,14.632 7.22175,14.80775 7.3165,14.96775 C7.38575,15.087 7.4775,15.1955 7.582,15.29025 C7.914,14.5625 8.4335,13.9455 9.02625,13.43175 Z M21.65425,16.99125 C21.65425,16.34275 21.42,15.6915 21.041,15.166 C20.28625,14.11525 19.11425,13.42975 17.8945,13.048 L17.88675,13.044 C17.65225,12.97275 17.416,12.90925 17.17775,12.8545 C16.46475,12.6925 15.7345,12.6115 15.005,12.6115 C14.0255,12.6115 13.045,12.757 12.1075,13.046 C10.88875,13.43275 9.713,14.1135 8.959,15.168 L8.959,15.169 C8.57725,15.6955 8.3525,16.34975 8.3525,17 C8.3525,17.24025 8.38275,17.4795 8.44625,17.713 L8.44725,17.714 C8.584,18.2365 8.8525,18.70425 9.20025,19.1105 C9.547,19.51875 9.97275,19.86625 10.421,20.1505 C10.5205,20.212 10.62,20.2705 10.72175,20.32725 C12.0235,21.05375 13.5215,21.37225 15.00875,21.37225 C15.26075,21.37225 15.51375,21.3635 15.76375,21.34475 C17.26175,21.22175 18.7655,20.7795 19.9825,19.876 L19.9825,19.875 C20.36925,19.589 20.7285,19.24225 21.01175,18.84875 C21.297,18.45425 21.505,18.01375 21.59775,17.53525 L21.59775,17.53325 C21.63575,17.3545 21.65425,17.173 21.65425,16.99125 Z M22.837,14.41025 C22.836,14.252 22.80075,14.09575 22.72175,13.94925 L22.71975,13.94725 L22.71875,13.9455 C22.61325,13.72775 22.44825,13.5645 22.248,13.45225 C22.04875,13.34 21.8145,13.28225 21.58,13.28225 C21.36825,13.28225 21.15825,13.33025 20.97075,13.424 C21.5655,13.9405 22.087,14.5615 22.42475,15.292 C22.53325,15.19725 22.626,15.08225 22.69525,14.95325 C22.78525,14.78525 22.837,14.59675 22.837,14.41025 Z"/>
  </g>
</svg>
