<svg xmlns="http://www.w3.org/2000/svg" width="31" height="30" viewBox="0 0 31 30">
  <g fill="none" fill-rule="evenodd" transform="translate(.192)">
    <path fill="#FC8A33" d="M22.75,10.4195038 C22.1637958,10.6595499 21.5288454,10.8257357 20.8651473,10.898442 C21.5438442,10.5233699 22.0613038,9.92902481 22.3100344,9.22042701 C21.675084,9.5678015 20.9726389,9.82054241 20.2201976,9.95556838 C19.6252441,9.36930179 18.7703109,9 17.8278845,9 C16.016776,9 14.5468909,10.3571841 14.5468909,12.0294287 C14.5468909,12.2683208 14.5768885,12.4979804 14.6306343,12.7195615 C11.9008476,12.592614 9.48478634,11.3889209 7.863663,9.55395268 C7.57993516,10.000577 7.41869776,10.5233699 7.41869776,11.0784766 C7.41869776,12.1286786 7.99990235,13.0577034 8.8785837,13.5978073 C8.34112569,13.5851125 7.83866495,13.4454703 7.39494961,13.2192729 L7.39494961,13.2562031 C7.39494961,14.7253318 8.52736114,15.9509521 10.0259941,16.2313907 C9.75226545,16.2983266 9.4597883,16.3341027 9.16231154,16.3341027 C8.95232794,16.3341027 8.74734396,16.3167917 8.54235997,16.2810156 C8.96232716,17.4847086 10.1722326,18.3583381 11.6083704,18.3860358 C10.4847082,19.1973456 9.06856886,19.6797461 7.53118897,19.6797461 C7.26745957,19.6797461 7.00872979,19.6658973 6.75,19.6393537 C8.20488634,20.5002885 9.92850168,21 11.7833568,21 C17.8178853,21 21.1188774,16.3837276 21.1188774,12.3814195 L21.1088782,11.9890364 C21.7538278,11.5608771 22.3100344,11.0288517 22.75,10.4195038 Z"/>
    <circle cx="15" cy="15" r="14.5" stroke="#FC8A33"/>
  </g>
</svg>
